<svg xmlns="http://www.w3.org/2000/svg" xmlns:xlink="http://www.w3.org/1999/xlink" width="40" zoomAndPan="magnify" viewBox="0 0 30 30.000001" height="40" preserveAspectRatio="xMidYMid meet" version="1.2"><defs><clipPath id="7f4490d506"><path d="M 2.796875 8 L 27.476562 8 L 27.476562 26.128906 L 2.796875 26.128906 Z M 2.796875 8 "/></clipPath><clipPath id="7e546aade0"><path d="M 7 2.902344 L 23 2.902344 L 23 13 L 7 13 Z M 7 2.902344 "/></clipPath></defs><g id="4f9d4c87f5"><g clip-rule="nonzero" clip-path="url(#7f4490d506)"><path style=" stroke:none;fill-rule:nonzero;fill:#000000;fill-opacity:1;" d="M 27.265625 11.628906 L 27.265625 11.625 C 27.085938 11.117188 26.78125 10.660156 26.363281 10.296875 L 25.597656 9.628906 C 25.554688 9.589844 25.511719 9.554688 25.46875 9.519531 L 23.910156 8.296875 L 23.910156 10.703125 L 24.320312 11.027344 L 24.324219 11.027344 C 24.429688 11.113281 24.53125 11.207031 24.628906 11.304688 L 24.339844 11.535156 L 15.230469 18.78125 L 5.988281 11.53125 L 5.679688 11.289062 C 5.773438 11.199219 5.867188 11.109375 5.972656 11.027344 L 6.402344 10.683594 L 6.402344 8.265625 L 4.773438 9.558594 L 3.9375 10.296875 C 3.523438 10.660156 3.21875 11.121094 3.042969 11.625 L 3.042969 11.628906 C 2.929688 11.957031 2.867188 12.304688 2.867188 12.65625 L 2.867188 23.429688 C 2.867188 24.921875 4.089844 26.128906 5.597656 26.128906 L 24.714844 26.128906 C 26.222656 26.128906 27.445312 24.921875 27.445312 23.429688 L 27.445312 12.667969 C 27.445312 12.308594 27.382812 11.957031 27.265625 11.628906 Z M 4.777344 23.097656 L 4.777344 13.496094 C 4.777344 13.332031 4.789062 13.175781 4.8125 13.019531 L 10.476562 17.460938 Z M 6.320312 24.242188 L 11.980469 18.640625 L 14.640625 20.726562 C 14.8125 20.863281 15.023438 20.929688 15.234375 20.929688 C 15.445312 20.929688 15.65625 20.859375 15.832031 20.722656 L 18.394531 18.683594 L 24.019531 24.242188 Z M 25.535156 23.074219 L 19.890625 17.492188 L 25.5 13.035156 C 25.523438 13.191406 25.535156 13.347656 25.535156 13.507812 Z M 25.535156 23.074219 "/></g><g clip-rule="nonzero" clip-path="url(#7e546aade0)"><path style=" stroke:none;fill-rule:nonzero;fill:#000000;fill-opacity:1;" d="M 7.382812 6.242188 L 7.382812 11.386719 L 9.0625 12.707031 L 9.0625 4.566406 L 21.25 4.566406 L 21.25 12.75 L 22.929688 11.410156 L 22.929688 3.734375 C 22.929688 3.273438 22.554688 2.902344 22.089844 2.902344 L 8.222656 2.902344 C 7.757812 2.902344 7.382812 3.273438 7.382812 3.734375 Z M 7.382812 6.242188 "/></g><path style=" stroke:none;fill-rule:nonzero;fill:#000000;fill-opacity:1;" d="M 15.863281 11.695312 L 15.835938 11.695312 C 15.601562 12.320312 15.183594 12.632812 14.578125 12.632812 C 14.121094 12.632812 13.753906 12.46875 13.476562 12.140625 C 13.195312 11.816406 13.058594 11.363281 13.058594 10.785156 C 13.058594 10.039062 13.25 9.429688 13.636719 8.960938 C 14.023438 8.492188 14.488281 8.257812 15.03125 8.257812 C 15.523438 8.257812 15.832031 8.449219 15.957031 8.832031 L 15.976562 8.832031 L 16.027344 8.347656 L 17.140625 8.347656 C 16.992188 9.738281 16.917969 10.648438 16.917969 11.074219 C 16.917969 11.53125 17.042969 11.761719 17.296875 11.761719 C 17.558594 11.761719 17.777344 11.585938 17.949219 11.242188 C 18.121094 10.894531 18.207031 10.441406 18.207031 9.886719 C 18.207031 9.121094 17.960938 8.496094 17.46875 8.007812 C 16.976562 7.519531 16.289062 7.273438 15.410156 7.273438 C 14.464844 7.273438 13.679688 7.601562 13.054688 8.25 C 12.429688 8.902344 12.117188 9.695312 12.117188 10.632812 C 12.117188 11.542969 12.394531 12.257812 12.945312 12.777344 C 13.5 13.300781 14.261719 13.5625 15.234375 13.5625 C 15.980469 13.5625 16.660156 13.421875 17.277344 13.140625 L 17.277344 14.074219 C 16.710938 14.3125 15.984375 14.433594 15.097656 14.433594 C 13.878906 14.433594 12.886719 14.089844 12.125 13.398438 C 11.359375 12.707031 10.976562 11.78125 10.976562 10.613281 C 10.976562 9.425781 11.386719 8.425781 12.203125 7.617188 C 13.015625 6.808594 14.066406 6.402344 15.351562 6.402344 C 16.539062 6.402344 17.5 6.71875 18.234375 7.34375 C 18.96875 7.972656 19.335938 8.800781 19.335938 9.832031 C 19.335938 10.675781 19.109375 11.355469 18.664062 11.863281 C 18.214844 12.375 17.65625 12.632812 16.992188 12.632812 C 16.667969 12.632812 16.402344 12.542969 16.195312 12.371094 C 15.992188 12.199219 15.878906 11.972656 15.863281 11.695312 Z M 15.207031 9.109375 C 14.910156 9.109375 14.667969 9.277344 14.480469 9.613281 C 14.292969 9.949219 14.199219 10.335938 14.199219 10.777344 C 14.199219 11.089844 14.265625 11.332031 14.390625 11.507812 C 14.519531 11.683594 14.683594 11.769531 14.882812 11.769531 C 15.195312 11.769531 15.4375 11.605469 15.617188 11.273438 C 15.792969 10.945312 15.882812 10.503906 15.882812 9.953125 C 15.882812 9.691406 15.820312 9.488281 15.699219 9.335938 C 15.574219 9.1875 15.410156 9.109375 15.207031 9.109375 Z M 15.207031 9.109375 "/></g></svg>