<svg xmlns="http://www.w3.org/2000/svg" xmlns:xlink="http://www.w3.org/1999/xlink" width="40" zoomAndPan="magnify" viewBox="0 0 30 30.000001" height="40" preserveAspectRatio="xMidYMid meet" version="1.2"><defs><clipPath id="ac18c7cf88"><path d="M 11 6 L 29.515625 6 L 29.515625 16 L 11 16 Z M 11 6 "/></clipPath><clipPath id="079db614ba"><path d="M 10 22 L 16 22 L 16 27.554688 L 10 27.554688 Z M 10 22 "/></clipPath><clipPath id="a316fa3850"><path d="M 21 22 L 27 22 L 27 27.554688 L 21 27.554688 Z M 21 22 "/></clipPath><clipPath id="8245d9dab5"><path d="M 0.484375 1.425781 L 29 1.425781 L 29 22 L 0.484375 22 Z M 0.484375 1.425781 "/></clipPath></defs><g id="cde02ec5f6"><g clip-rule="nonzero" clip-path="url(#ac18c7cf88)"><path style=" stroke:none;fill-rule:nonzero;fill:#000000;fill-opacity:1;" d="M 28.808594 6.382812 L 11.941406 6.382812 C 11.390625 6.382812 11.078125 6.804688 11.242188 7.328125 L 13.910156 15.132812 C 14.042969 15.550781 14.507812 15.894531 14.949219 15.894531 L 26.007812 15.894531 C 26.449219 15.894531 26.914062 15.550781 27.046875 15.132812 L 29.371094 7.144531 C 29.503906 6.722656 29.25 6.382812 28.808594 6.382812 Z M 28.808594 6.382812 "/></g><g clip-rule="nonzero" clip-path="url(#079db614ba)"><path style=" stroke:none;fill-rule:nonzero;fill:#000000;fill-opacity:1;" d="M 15.988281 24.882812 C 15.988281 25.214844 15.925781 25.539062 15.796875 25.847656 C 15.667969 26.15625 15.488281 26.425781 15.25 26.664062 C 15.015625 26.898438 14.742188 27.082031 14.433594 27.210938 C 14.125 27.335938 13.800781 27.402344 13.464844 27.402344 C 13.132812 27.402344 12.808594 27.335938 12.5 27.210938 C 12.191406 27.082031 11.917969 26.898438 11.683594 26.664062 C 11.445312 26.425781 11.261719 26.15625 11.136719 25.847656 C 11.007812 25.539062 10.945312 25.214844 10.945312 24.882812 C 10.945312 24.546875 11.007812 24.226562 11.136719 23.917969 C 11.261719 23.609375 11.445312 23.335938 11.683594 23.101562 C 11.917969 22.867188 12.191406 22.683594 12.5 22.554688 C 12.808594 22.429688 13.132812 22.363281 13.464844 22.363281 C 13.800781 22.363281 14.125 22.429688 14.433594 22.554688 C 14.742188 22.683594 15.015625 22.867188 15.25 23.101562 C 15.488281 23.335938 15.667969 23.609375 15.796875 23.917969 C 15.925781 24.226562 15.988281 24.546875 15.988281 24.882812 Z M 15.988281 24.882812 "/></g><g clip-rule="nonzero" clip-path="url(#a316fa3850)"><path style=" stroke:none;fill-rule:nonzero;fill:#000000;fill-opacity:1;" d="M 26.667969 24.914062 C 26.667969 25.25 26.601562 25.570312 26.472656 25.878906 C 26.347656 26.1875 26.164062 26.460938 25.925781 26.695312 C 25.691406 26.933594 25.417969 27.113281 25.109375 27.242188 C 24.800781 27.371094 24.476562 27.433594 24.144531 27.433594 C 23.808594 27.433594 23.488281 27.371094 23.179688 27.242188 C 22.867188 27.113281 22.597656 26.933594 22.359375 26.695312 C 22.121094 26.460938 21.941406 26.1875 21.8125 25.878906 C 21.683594 25.570312 21.621094 25.25 21.621094 24.914062 C 21.621094 24.582031 21.683594 24.257812 21.8125 23.949219 C 21.941406 23.640625 22.121094 23.371094 22.359375 23.132812 C 22.597656 22.898438 22.867188 22.714844 23.179688 22.585938 C 23.488281 22.460938 23.808594 22.394531 24.144531 22.394531 C 24.476562 22.394531 24.800781 22.460938 25.109375 22.585938 C 25.417969 22.714844 25.691406 22.898438 25.925781 23.132812 C 26.164062 23.371094 26.347656 23.640625 26.472656 23.949219 C 26.601562 24.257812 26.667969 24.582031 26.667969 24.914062 Z M 26.667969 24.914062 "/></g><g clip-rule="nonzero" clip-path="url(#8245d9dab5)"><path style=" stroke:none;fill-rule:nonzero;fill:#000000;fill-opacity:1;" d="M 27.171875 18.457031 L 12.417969 18.457031 L 6.507812 1.488281 L 1.910156 1.488281 C 1.121094 1.488281 0.480469 2.125 0.480469 2.914062 C 0.480469 3.703125 1.121094 4.339844 1.910156 4.339844 L 4.476562 4.339844 L 10.382812 21.308594 L 27.171875 21.308594 C 27.960938 21.308594 28.601562 20.671875 28.601562 19.882812 C 28.601562 19.09375 27.960938 18.457031 27.171875 18.457031 Z M 27.171875 18.457031 "/></g></g></svg>