<svg xmlns="http://www.w3.org/2000/svg" xmlns:xlink="http://www.w3.org/1999/xlink" width="40" zoomAndPan="magnify" viewBox="0 0 30 30.000001" height="40" preserveAspectRatio="xMidYMid meet" version="1.2"><defs><clipPath id="60e6283055"><path d="M 3.640625 0 L 26 0 L 26 23 L 3.640625 23 Z M 3.640625 0 "/></clipPath></defs><g id="010d4a9915"><g clip-rule="nonzero" clip-path="url(#60e6283055)"><path style=" stroke:none;fill-rule:nonzero;fill:#48cd09;fill-opacity:1;" d="M 19.367188 22.335938 L 10.265625 22.335938 C 10.101562 22.335938 9.957031 22.277344 9.839844 22.160156 C 9.722656 22.042969 9.664062 21.902344 9.664062 21.734375 L 9.664062 11.699219 L 4.316406 11.699219 C 4.046875 11.699219 3.859375 11.574219 3.757812 11.328125 C 3.65625 11.078125 3.699219 10.859375 3.890625 10.671875 L 14.390625 0.167969 C 14.511719 0.0546875 14.65625 0 14.820312 0 C 14.984375 0 15.125 0.0546875 15.246094 0.167969 L 25.65625 10.578125 C 25.773438 10.648438 25.855469 10.75 25.90625 10.875 C 25.953125 11 25.960938 11.128906 25.925781 11.257812 C 25.886719 11.386719 25.816406 11.496094 25.707031 11.574219 C 25.601562 11.65625 25.480469 11.699219 25.34375 11.699219 L 19.96875 11.699219 L 19.96875 21.734375 C 19.96875 21.898438 19.910156 22.042969 19.792969 22.160156 C 19.675781 22.277344 19.53125 22.335938 19.367188 22.335938 Z M 19.367188 22.335938 "/></g><path style=" stroke:none;fill-rule:nonzero;fill:#48cd09;fill-opacity:1;" d="M 9.664062 24.339844 L 19.96875 24.339844 L 19.96875 25.546875 L 9.664062 25.546875 Z M 9.664062 24.339844 "/><path style=" stroke:none;fill-rule:nonzero;fill:#48cd09;fill-opacity:1;" d="M 9.664062 27.550781 L 19.96875 27.550781 L 19.96875 28.753906 L 9.664062 28.753906 Z M 9.664062 27.550781 "/></g></svg>