<svg xmlns="http://www.w3.org/2000/svg" xmlns:xlink="http://www.w3.org/1999/xlink" width="40" zoomAndPan="magnify" viewBox="0 0 30 30.000001" height="40" preserveAspectRatio="xMidYMid meet" version="1.2"><defs><clipPath id="bc320c96c9"><path d="M 6.492188 2.902344 L 23.183594 2.902344 L 23.183594 26.128906 L 6.492188 26.128906 Z M 6.492188 2.902344 "/></clipPath></defs><g id="f40f2ed566"><g clip-rule="nonzero" clip-path="url(#bc320c96c9)"><path style=" stroke:none;fill-rule:nonzero;fill:#000000;fill-opacity:1;" d="M 22.425781 6.011719 L 20.148438 6.011719 C 20.148438 5.585938 19.808594 5.238281 19.390625 5.238281 L 17.765625 5.238281 C 17.425781 3.90625 16.25 2.917969 14.835938 2.917969 C 13.425781 2.917969 12.25 3.90625 11.910156 5.238281 L 10.285156 5.238281 C 9.867188 5.238281 9.527344 5.585938 9.527344 6.011719 L 7.25 6.011719 C 6.832031 6.011719 6.492188 6.359375 6.492188 6.785156 L 6.492188 25.339844 C 6.492188 25.765625 6.832031 26.113281 7.25 26.113281 L 22.425781 26.113281 C 22.84375 26.113281 23.183594 25.765625 23.183594 25.339844 L 23.183594 6.785156 C 23.183594 6.359375 22.84375 6.011719 22.425781 6.011719 Z M 14.835938 4.464844 C 15.398438 4.464844 15.878906 4.78125 16.144531 5.238281 L 13.53125 5.238281 C 13.796875 4.78125 14.285156 4.464844 14.835938 4.464844 Z M 18.632812 6.785156 L 18.632812 7.558594 L 11.042969 7.558594 L 11.042969 6.785156 Z M 20.90625 24.566406 L 8.765625 24.566406 C 8.351562 24.566406 8.007812 24.21875 8.007812 23.792969 L 8.007812 8.332031 C 8.007812 7.90625 8.351562 7.558594 8.765625 7.558594 L 9.527344 7.558594 L 9.527344 8.332031 C 9.527344 8.753906 9.867188 9.101562 10.285156 9.101562 L 19.390625 9.101562 C 19.808594 9.101562 20.148438 8.753906 20.148438 8.332031 L 20.148438 7.558594 L 20.90625 7.558594 C 21.324219 7.558594 21.667969 7.90625 21.667969 8.332031 L 21.667969 23.792969 C 21.667969 24.21875 21.324219 24.566406 20.90625 24.566406 Z M 13.078125 11.671875 C 13.375 11.972656 13.375 12.460938 13.078125 12.761719 L 11.574219 14.292969 C 11.421875 14.445312 11.234375 14.515625 11.035156 14.515625 C 10.839844 14.515625 10.648438 14.4375 10.496094 14.292969 L 9.738281 13.519531 C 9.441406 13.21875 9.441406 12.730469 9.738281 12.429688 C 10.035156 12.125 10.511719 12.125 10.808594 12.429688 L 11.027344 12.652344 L 11.992188 11.671875 C 12.289062 11.367188 12.765625 11.367188 13.0625 11.671875 Z M 20.148438 12.96875 C 20.148438 13.394531 19.808594 13.742188 19.390625 13.742188 L 15.597656 13.742188 C 15.179688 13.742188 14.835938 13.394531 14.835938 12.96875 C 14.835938 12.542969 15.179688 12.195312 15.597656 12.195312 L 19.390625 12.195312 C 19.808594 12.195312 20.148438 12.542969 20.148438 12.96875 Z M 13.078125 15.535156 C 13.375 15.839844 13.375 16.324219 13.078125 16.628906 L 11.574219 18.15625 C 11.421875 18.3125 11.234375 18.382812 11.035156 18.382812 C 10.839844 18.382812 10.648438 18.304688 10.496094 18.15625 L 9.738281 17.386719 C 9.441406 17.082031 9.441406 16.597656 9.738281 16.292969 C 10.035156 15.992188 10.511719 15.992188 10.808594 16.292969 L 11.027344 16.519531 L 11.992188 15.535156 C 12.289062 15.234375 12.765625 15.234375 13.0625 15.535156 Z M 20.148438 16.835938 C 20.148438 17.261719 19.808594 17.609375 19.390625 17.609375 L 15.597656 17.609375 C 15.179688 17.609375 14.835938 17.261719 14.835938 16.835938 C 14.835938 16.410156 15.179688 16.0625 15.597656 16.0625 L 19.390625 16.0625 C 19.808594 16.0625 20.148438 16.410156 20.148438 16.835938 Z M 13.078125 19.402344 C 13.375 19.703125 13.375 20.191406 13.078125 20.492188 L 11.574219 22.023438 C 11.421875 22.179688 11.234375 22.25 11.035156 22.25 C 10.839844 22.25 10.648438 22.171875 10.496094 22.023438 L 9.738281 21.25 C 9.441406 20.949219 9.441406 20.460938 9.738281 20.160156 C 10.035156 19.859375 10.511719 19.859375 10.808594 20.160156 L 11.027344 20.386719 L 11.992188 19.402344 C 12.289062 19.101562 12.765625 19.101562 13.0625 19.402344 Z M 20.148438 20.703125 C 20.148438 21.128906 19.808594 21.476562 19.390625 21.476562 L 15.597656 21.476562 C 15.179688 21.476562 14.835938 21.128906 14.835938 20.703125 C 14.835938 20.277344 15.179688 19.929688 15.597656 19.929688 L 19.390625 19.929688 C 19.808594 19.929688 20.148438 20.277344 20.148438 20.703125 Z M 20.148438 20.703125 "/></g></g></svg>