<svg xmlns="http://www.w3.org/2000/svg" xmlns:xlink="http://www.w3.org/1999/xlink" width="40" zoomAndPan="magnify" viewBox="0 0 30 30.000001" height="40" preserveAspectRatio="xMidYMid meet" version="1.2"><defs><clipPath id="fec339f2bb"><path d="M 21 4.980469 L 26.613281 4.980469 L 26.613281 18 L 21 18 Z M 21 4.980469 "/></clipPath><clipPath id="c60ad02d22"><path d="M 3.386719 4.980469 L 19 4.980469 L 19 23.851562 L 3.386719 23.851562 Z M 3.386719 4.980469 "/></clipPath></defs><g id="99f3230268"><path style=" stroke:none;fill-rule:nonzero;fill:#000000;fill-opacity:1;" d="M 12.929688 13.183594 L 15.414062 13.183594 L 15.414062 17.285156 L 12.929688 17.285156 Z M 12.929688 13.183594 "/><path style=" stroke:none;fill-rule:nonzero;fill:#000000;fill-opacity:1;" d="M 16.242188 11.542969 L 18.730469 11.542969 L 18.730469 17.285156 L 16.242188 17.285156 Z M 16.242188 11.542969 "/><path style=" stroke:none;fill-rule:nonzero;fill:#000000;fill-opacity:1;" d="M 19.558594 9.902344 L 22.046875 9.902344 L 22.046875 17.285156 L 19.558594 17.285156 Z M 19.558594 9.902344 "/><g clip-rule="nonzero" clip-path="url(#fec339f2bb)"><path style=" stroke:none;fill-rule:nonzero;fill:#000000;fill-opacity:1;" d="M 22.875 17.285156 L 25.359375 17.285156 L 25.359375 8.261719 L 26.605469 8.261719 L 24.117188 4.980469 L 21.632812 8.261719 L 22.875 8.261719 Z M 22.875 17.285156 "/></g><g clip-rule="nonzero" clip-path="url(#c60ad02d22)"><path style=" stroke:none;fill-rule:nonzero;fill:#000000;fill-opacity:1;" d="M 3.394531 16.414062 C 3.644531 17.582031 4.097656 18.667969 4.761719 19.667969 C 4.957031 19.515625 5.175781 19.398438 5.414062 19.320312 C 5.652344 19.246094 5.894531 19.214844 6.148438 19.226562 C 6.398438 19.242188 6.636719 19.296875 6.863281 19.398438 C 7.09375 19.5 7.296875 19.636719 7.472656 19.8125 C 7.652344 19.988281 7.789062 20.191406 7.894531 20.417969 C 7.996094 20.644531 8.050781 20.878906 8.066406 21.128906 C 8.078125 21.375 8.046875 21.617188 7.96875 21.851562 C 7.894531 22.089844 7.777344 22.304688 7.617188 22.496094 C 8.628906 23.152344 9.726562 23.605469 10.910156 23.851562 C 10.9375 23.605469 11.007812 23.371094 11.121094 23.152344 C 11.238281 22.929688 11.386719 22.738281 11.574219 22.574219 C 11.757812 22.410156 11.96875 22.28125 12.203125 22.195312 C 12.4375 22.105469 12.679688 22.0625 12.929688 22.0625 C 13.175781 22.0625 13.417969 22.105469 13.652344 22.195312 C 13.886719 22.28125 14.097656 22.410156 14.28125 22.574219 C 14.46875 22.738281 14.617188 22.929688 14.734375 23.152344 C 14.847656 23.371094 14.917969 23.605469 14.945312 23.851562 C 16.128906 23.605469 17.226562 23.152344 18.238281 22.496094 C 18.089844 22.316406 17.976562 22.121094 17.898438 21.902344 C 17.824219 21.6875 17.785156 21.464844 17.785156 21.234375 C 17.785156 21.003906 17.824219 20.78125 17.898438 20.566406 C 17.976562 20.347656 18.089844 20.152344 18.238281 19.972656 L 16.164062 18.148438 C 15.925781 18.351562 15.671875 18.527344 15.398438 18.683594 C 15.128906 18.839844 14.84375 18.964844 14.546875 19.066406 C 14.25 19.167969 13.945312 19.242188 13.636719 19.285156 C 13.324219 19.332031 13.011719 19.347656 12.699219 19.332031 C 12.386719 19.320312 12.078125 19.277344 11.773438 19.203125 C 11.464844 19.132812 11.171875 19.03125 10.882812 18.90625 C 10.597656 18.777344 10.328125 18.625 10.070312 18.445312 C 9.8125 18.269531 9.574219 18.066406 9.355469 17.84375 C 9.136719 17.621094 8.941406 17.382812 8.769531 17.121094 C 8.597656 16.863281 8.449219 16.589844 8.332031 16.304688 C 8.210938 16.015625 8.117188 15.71875 8.054688 15.417969 C 7.988281 15.113281 7.957031 14.804688 7.949219 14.496094 C 7.945312 14.183594 7.96875 13.875 8.023438 13.570312 C 8.078125 13.261719 8.160156 12.964844 8.269531 12.675781 C 8.382812 12.382812 8.519531 12.105469 8.683594 11.84375 C 8.847656 11.578125 9.035156 11.328125 9.246094 11.101562 C 9.457031 10.871094 9.6875 10.664062 9.9375 10.476562 C 10.191406 10.289062 10.457031 10.128906 10.738281 9.992188 C 11.019531 9.855469 11.3125 9.746094 11.613281 9.664062 C 11.917969 9.582031 12.226562 9.53125 12.539062 9.507812 C 12.851562 9.480469 13.164062 9.488281 13.476562 9.523438 C 13.789062 9.554688 14.09375 9.621094 14.394531 9.710938 C 14.691406 9.804688 14.980469 9.921875 15.257812 10.066406 C 15.535156 10.214844 15.796875 10.382812 16.039062 10.578125 L 18.113281 8.664062 C 17.878906 8.300781 17.777344 7.90625 17.800781 7.476562 C 17.824219 7.046875 17.972656 6.667969 18.246094 6.332031 C 17.230469 5.675781 16.132812 5.222656 14.945312 4.980469 C 14.917969 5.226562 14.847656 5.457031 14.734375 5.675781 C 14.617188 5.898438 14.46875 6.089844 14.28125 6.253906 C 14.097656 6.417969 13.886719 6.546875 13.652344 6.632812 C 13.417969 6.722656 13.175781 6.765625 12.929688 6.765625 C 12.679688 6.765625 12.4375 6.722656 12.203125 6.632812 C 11.96875 6.546875 11.757812 6.417969 11.574219 6.253906 C 11.386719 6.089844 11.238281 5.898438 11.121094 5.675781 C 11.007812 5.457031 10.9375 5.226562 10.910156 4.980469 C 9.726562 5.222656 8.628906 5.675781 7.617188 6.332031 C 7.777344 6.527344 7.894531 6.742188 7.96875 6.976562 C 8.046875 7.210938 8.078125 7.453125 8.066406 7.703125 C 8.050781 7.949219 7.996094 8.1875 7.894531 8.414062 C 7.789062 8.640625 7.652344 8.839844 7.472656 9.015625 C 7.296875 9.191406 7.09375 9.328125 6.863281 9.429688 C 6.636719 9.53125 6.398438 9.589844 6.148438 9.601562 C 5.894531 9.613281 5.652344 9.582031 5.414062 9.507812 C 5.175781 9.429688 4.957031 9.316406 4.761719 9.160156 C 4.097656 10.160156 3.644531 11.246094 3.394531 12.417969 C 3.644531 12.445312 3.878906 12.515625 4.101562 12.628906 C 4.324219 12.742188 4.519531 12.890625 4.683594 13.074219 C 4.851562 13.257812 4.980469 13.464844 5.070312 13.695312 C 5.15625 13.929688 5.203125 14.167969 5.203125 14.414062 C 5.203125 14.660156 5.15625 14.902344 5.070312 15.132812 C 4.980469 15.363281 4.851562 15.570312 4.683594 15.753906 C 4.519531 15.9375 4.324219 16.089844 4.101562 16.203125 C 3.878906 16.316406 3.644531 16.386719 3.394531 16.414062 Z M 3.394531 16.414062 "/></g></g></svg>