<svg xmlns="http://www.w3.org/2000/svg" xmlns:xlink="http://www.w3.org/1999/xlink" width="40" zoomAndPan="magnify" viewBox="0 0 30 30.000001" height="40" preserveAspectRatio="xMidYMid meet" version="1.2"><defs><clipPath id="f787402b6a"><path d="M 3.386719 13 L 10 13 L 10 25.25 L 3.386719 25.25 Z M 3.386719 13 "/></clipPath><clipPath id="b583103c08"><path d="M 10 16 L 26.613281 16 L 26.613281 24 L 10 24 Z M 10 16 "/></clipPath><clipPath id="87af827963"><path d="M 17 3.476562 L 22 3.476562 L 22 9 L 17 9 Z M 17 3.476562 "/></clipPath></defs><g id="1a273023b6"><g clip-rule="nonzero" clip-path="url(#f787402b6a)"><path style=" stroke:none;fill-rule:nonzero;fill:#000000;fill-opacity:1;" d="M 3.398438 13.78125 L 3.398438 25.25 L 9.328125 24.320312 L 9.328125 14.710938 Z M 6.203125 21.230469 C 5.972656 21.230469 5.75 21.1875 5.535156 21.097656 C 5.324219 21.011719 5.136719 20.886719 4.972656 20.726562 C 4.808594 20.566406 4.683594 20.382812 4.597656 20.171875 C 4.507812 19.960938 4.464844 19.742188 4.464844 19.515625 C 4.464844 19.289062 4.507812 19.070312 4.597656 18.859375 C 4.683594 18.648438 4.808594 18.464844 4.972656 18.304688 C 5.136719 18.140625 5.324219 18.019531 5.535156 17.933594 C 5.75 17.84375 5.972656 17.800781 6.203125 17.800781 C 6.433594 17.800781 6.652344 17.84375 6.867188 17.933594 C 7.078125 18.019531 7.269531 18.140625 7.429688 18.304688 C 7.59375 18.464844 7.71875 18.648438 7.808594 18.859375 C 7.894531 19.070312 7.941406 19.289062 7.941406 19.515625 C 7.941406 19.742188 7.894531 19.960938 7.808594 20.171875 C 7.71875 20.378906 7.59375 20.566406 7.429688 20.726562 C 7.265625 20.886719 7.078125 21.011719 6.867188 21.097656 C 6.652344 21.183594 6.433594 21.230469 6.203125 21.230469 Z M 6.203125 21.230469 "/></g><g clip-rule="nonzero" clip-path="url(#b583103c08)"><path style=" stroke:none;fill-rule:nonzero;fill:#000000;fill-opacity:1;" d="M 26.535156 18.125 C 26.484375 18.296875 26.351562 18.457031 26.1875 18.648438 L 26.101562 18.742188 C 24.679688 20.382812 23.210938 22.074219 21.335938 23.0625 C 20.425781 23.542969 19.375 23.808594 18.300781 23.835938 C 16.394531 23.886719 14.339844 23.257812 12.191406 21.976562 C 11.742188 21.707031 11.253906 21.570312 10.726562 21.570312 L 10.117188 21.570312 L 10.117188 16.128906 L 13.863281 16.074219 C 14.707031 16.0625 15.734375 16.277344 16.679688 16.667969 C 17.683594 17.078125 18.722656 17.503906 19.636719 18.089844 C 19.90625 18.265625 20.210938 18.480469 20.386719 18.761719 C 20.546875 19.007812 20.585938 19.296875 20.484375 19.496094 C 20.40625 19.644531 20.234375 19.773438 20.023438 19.835938 C 19.824219 19.898438 19.589844 19.914062 19.265625 19.886719 C 18.476562 19.820312 17.714844 19.566406 17.136719 19.351562 C 17.101562 19.339844 17.027344 19.304688 16.953125 19.269531 C 16.542969 19.078125 16.113281 18.875 15.800781 19.097656 C 15.5625 19.261719 15.460938 19.628906 15.335938 20.167969 C 15.324219 20.21875 15.3125 20.269531 15.300781 20.316406 C 15.289062 20.359375 15.28125 20.398438 15.273438 20.421875 C 15.230469 20.542969 15.25 20.65625 15.324219 20.765625 C 15.398438 20.871094 15.5 20.925781 15.632812 20.933594 C 15.820312 20.976562 16.578125 21.222656 17.136719 21.402344 C 18.144531 21.726562 18.574219 21.863281 18.714844 21.882812 C 19.632812 22.023438 20.421875 21.871094 21.125 21.410156 C 21.773438 20.984375 22.285156 20.351562 22.757812 19.738281 C 22.796875 19.683594 22.839844 19.628906 22.886719 19.5625 C 23.417969 18.863281 24.664062 17.214844 25.65625 17.15625 C 25.78125 17.148438 25.898438 17.167969 26.011719 17.214844 C 26.023438 17.222656 26.035156 17.226562 26.046875 17.230469 L 26.050781 17.234375 C 26.171875 17.292969 26.277344 17.375 26.367188 17.472656 C 26.535156 17.648438 26.601562 17.910156 26.535156 18.125 Z M 26.535156 18.125 "/></g><path style=" stroke:none;fill-rule:nonzero;fill:#000000;fill-opacity:1;" d="M 7.152344 19.515625 C 7.152344 19.773438 7.058594 19.996094 6.875 20.175781 C 6.6875 20.359375 6.464844 20.453125 6.203125 20.453125 C 5.941406 20.453125 5.714844 20.359375 5.53125 20.175781 C 5.34375 19.996094 5.253906 19.773438 5.253906 19.515625 C 5.253906 19.257812 5.34375 19.035156 5.53125 18.851562 C 5.714844 18.671875 5.941406 18.578125 6.203125 18.578125 C 6.464844 18.578125 6.6875 18.671875 6.875 18.851562 C 7.058594 19.035156 7.152344 19.257812 7.152344 19.515625 Z M 7.152344 19.515625 "/><path style=" stroke:none;fill-rule:nonzero;fill:#000000;fill-opacity:1;" d="M 22.679688 10.390625 C 22.371094 10.070312 22 9.84375 21.570312 9.714844 C 21.566406 9.714844 21.566406 9.710938 21.5625 9.710938 C 21.324219 9.640625 21.082031 9.605469 20.835938 9.605469 L 18.042969 9.605469 C 17.792969 9.605469 17.550781 9.640625 17.3125 9.710938 L 17.304688 9.714844 C 16.875 9.84375 16.503906 10.070312 16.195312 10.390625 C 14.800781 11.855469 13.878906 13.464844 13.390625 15.304688 L 13.855469 15.296875 C 14.816406 15.285156 15.925781 15.515625 16.984375 15.949219 C 18.019531 16.375 19.089844 16.816406 20.066406 17.441406 C 20.410156 17.660156 20.796875 17.941406 21.054688 18.34375 C 21.363281 18.828125 21.414062 19.402344 21.1875 19.847656 C 21.011719 20.1875 20.671875 20.457031 20.253906 20.582031 C 19.867188 20.699219 19.46875 20.683594 19.203125 20.664062 C 18.3125 20.589844 17.484375 20.3125 16.859375 20.082031 C 16.789062 20.054688 16.707031 20.019531 16.613281 19.972656 C 16.527344 19.933594 16.367188 19.859375 16.246094 19.816406 C 16.199219 19.945312 16.152344 20.132812 16.121094 20.265625 C 16.167969 20.28125 16.21875 20.296875 16.273438 20.3125 C 16.578125 20.40625 16.984375 20.539062 17.378906 20.664062 C 17.9375 20.84375 18.703125 21.09375 18.832031 21.117188 C 20.394531 21.355469 21.179688 20.503906 22.121094 19.273438 C 22.160156 19.21875 22.203125 19.164062 22.253906 19.101562 C 22.949219 18.179688 24.246094 16.464844 25.609375 16.382812 C 25.644531 16.382812 25.683594 16.378906 25.722656 16.382812 C 25.332031 14.085938 24.335938 12.125 22.679688 10.390625 Z M 19.949219 12.945312 C 20.660156 12.945312 21.242188 13.542969 21.242188 14.277344 L 21.242188 14.28125 C 21.242188 14.875 20.863281 15.382812 20.34375 15.554688 L 20.34375 15.765625 C 20.34375 15.875 20.304688 15.964844 20.226562 16.042969 C 20.148438 16.117188 20.054688 16.15625 19.945312 16.15625 C 19.839844 16.15625 19.746094 16.117188 19.667969 16.042969 C 19.589844 15.964844 19.550781 15.875 19.550781 15.765625 L 19.550781 15.554688 C 19.035156 15.382812 18.65625 14.882812 18.652344 14.292969 C 18.648438 14.183594 18.6875 14.09375 18.765625 14.015625 C 18.839844 13.941406 18.933594 13.902344 19.042969 13.902344 L 19.046875 13.902344 C 19.152344 13.902344 19.246094 13.9375 19.324219 14.015625 C 19.398438 14.089844 19.4375 14.179688 19.441406 14.289062 C 19.441406 14.59375 19.667969 14.84375 19.945312 14.84375 C 20.222656 14.84375 20.453125 14.589844 20.453125 14.28125 C 20.453125 13.972656 20.226562 13.722656 19.945312 13.722656 C 19.230469 13.722656 18.648438 13.125 18.648438 12.386719 C 18.648438 11.789062 19.03125 11.285156 19.550781 11.113281 L 19.550781 10.957031 C 19.550781 10.847656 19.589844 10.753906 19.667969 10.679688 C 19.746094 10.605469 19.839844 10.566406 19.945312 10.566406 C 20.054688 10.566406 20.148438 10.605469 20.226562 10.679688 C 20.304688 10.753906 20.34375 10.847656 20.34375 10.957031 L 20.34375 11.113281 C 20.863281 11.285156 21.242188 11.789062 21.242188 12.386719 C 21.242188 12.492188 21.207031 12.585938 21.128906 12.660156 C 21.050781 12.738281 20.957031 12.777344 20.847656 12.777344 C 20.738281 12.777344 20.648438 12.738281 20.570312 12.660156 C 20.492188 12.585938 20.453125 12.492188 20.453125 12.386719 C 20.453125 12.078125 20.226562 11.828125 19.945312 11.828125 C 19.667969 11.828125 19.441406 12.078125 19.441406 12.386719 C 19.441406 12.695312 19.667969 12.945312 19.949219 12.945312 Z M 19.949219 12.945312 "/><g clip-rule="nonzero" clip-path="url(#87af827963)"><path style=" stroke:none;fill-rule:nonzero;fill:#000000;fill-opacity:1;" d="M 21.601562 5.386719 L 21.328125 8.863281 C 21.167969 8.839844 21.003906 8.828125 20.835938 8.828125 L 18.042969 8.828125 C 17.875 8.828125 17.710938 8.839844 17.546875 8.863281 L 17.277344 5.386719 C 17.273438 5.371094 17.277344 5.351562 17.289062 5.339844 L 18.023438 5.339844 C 18.265625 5.335938 18.464844 5.246094 18.621094 5.0625 C 18.796875 4.855469 18.859375 4.617188 18.816406 4.351562 C 18.808594 4.3125 18.804688 4.269531 18.804688 4.230469 C 18.796875 4 18.875 3.808594 19.039062 3.648438 C 19.164062 3.53125 19.3125 3.476562 19.484375 3.488281 C 19.800781 3.511719 20.058594 3.816406 20.074219 4.179688 C 20.074219 4.238281 20.070312 4.296875 20.0625 4.351562 C 20.015625 4.617188 20.078125 4.851562 20.253906 5.054688 C 20.410156 5.242188 20.613281 5.335938 20.863281 5.339844 L 21.585938 5.339844 C 21.601562 5.351562 21.605469 5.371094 21.601562 5.386719 Z M 21.601562 5.386719 "/></g></g></svg>