<svg xmlns="http://www.w3.org/2000/svg" xmlns:xlink="http://www.w3.org/1999/xlink" width="40" zoomAndPan="magnify" viewBox="0 0 30 30.000001" height="40" preserveAspectRatio="xMidYMid meet" version="1.2"><defs><clipPath id="d6ff1bf84a"><path d="M 3.386719 2.902344 L 26.613281 2.902344 L 26.613281 26.128906 L 3.386719 26.128906 Z M 3.386719 2.902344 "/></clipPath></defs><g id="6101e41536"><g clip-rule="nonzero" clip-path="url(#d6ff1bf84a)"><path style=" stroke:none;fill-rule:evenodd;fill:#000000;fill-opacity:1;" d="M 12.59375 13.601562 L 12.59375 11.589844 C 12.59375 11.003906 12.121094 10.53125 11.539062 10.53125 L 10.585938 10.53125 L 10.585938 9.753906 L 25.1875 9.753906 L 25.1875 21.226562 C 25.1875 21.328125 25.148438 21.429688 25.074219 21.5 C 25.003906 21.574219 24.902344 21.617188 24.800781 21.617188 L 21.792969 21.617188 L 21.792969 20.570312 C 21.792969 20.363281 21.753906 20.1875 21.675781 19.996094 C 21.675781 19.992188 21.675781 19.992188 21.675781 19.988281 L 20.339844 16.824219 C 20.09375 16.246094 19.523438 15.859375 18.847656 15.859375 L 15.125 15.859375 C 15.082031 15.859375 15.039062 15.863281 15 15.871094 L 15 14.660156 C 15 14.074219 14.527344 13.601562 13.945312 13.601562 Z M 17.644531 2.992188 C 17.792969 2.90625 17.980469 2.90625 18.128906 2.992188 L 26.613281 7.960938 L 26.613281 8.597656 C 26.613281 8.808594 26.445312 8.984375 26.238281 8.984375 L 9.542969 8.984375 C 9.332031 8.984375 9.160156 8.808594 9.160156 8.597656 L 9.160156 7.960938 Z M 17.886719 7.292969 C 18.484375 7.292969 18.96875 6.804688 18.96875 6.207031 C 18.96875 5.609375 18.484375 5.125 17.886719 5.125 C 17.296875 5.125 16.8125 5.609375 16.8125 6.207031 C 16.8125 6.804688 17.296875 7.292969 17.886719 7.292969 Z M 7.753906 13.601562 L 7.753906 11.589844 C 7.753906 11.429688 7.882812 11.304688 8.039062 11.304688 L 11.539062 11.304688 C 11.695312 11.304688 11.824219 11.429688 11.824219 11.589844 L 11.824219 13.601562 Z M 5.324219 17.535156 L 5.324219 14.648438 C 5.324219 14.488281 5.453125 14.363281 5.609375 14.363281 L 9.109375 14.363281 C 9.265625 14.363281 9.394531 14.488281 9.394531 14.648438 L 9.394531 17.535156 Z M 10.164062 17.535156 L 10.164062 14.660156 C 10.164062 14.5 10.289062 14.371094 10.449219 14.371094 L 13.945312 14.371094 C 14.105469 14.371094 14.230469 14.5 14.230469 14.660156 L 14.230469 17.539062 C 14.214844 17.535156 14.203125 17.535156 14.1875 17.535156 Z M 4.507812 21.671875 L 4.507812 18.695312 C 4.507812 18.59375 4.546875 18.496094 4.621094 18.421875 C 4.691406 18.351562 4.789062 18.308594 4.890625 18.308594 L 13.847656 18.308594 C 13.949219 18.308594 14.046875 18.351562 14.121094 18.421875 C 14.191406 18.496094 14.230469 18.59375 14.230469 18.695312 L 14.230469 21.671875 C 14.226562 21.671875 14.21875 21.671875 14.214844 21.671875 Z M 21.023438 24.414062 L 21.023438 24.484375 C 21.023438 24.765625 20.796875 24.992188 20.519531 24.992188 L 19.636719 24.992188 C 19.636719 24.019531 18.855469 23.230469 17.886719 23.230469 C 16.917969 23.230469 16.136719 24.019531 16.136719 24.992188 L 15.125 24.992188 L 15.125 16.632812 L 18.847656 16.632812 C 19.199219 16.632812 19.503906 16.824219 19.632812 17.128906 L 20.96875 20.292969 C 21.003906 20.386719 21.023438 20.46875 21.023438 20.570312 L 21.023438 21.707031 L 20.34375 21.707031 C 19.871094 21.707031 19.488281 22.089844 19.488281 22.570312 L 19.488281 23.554688 C 19.488281 24.03125 19.871094 24.414062 20.34375 24.414062 Z M 19.503906 20.070312 L 18.601562 17.925781 L 16.507812 17.925781 L 16.507812 20.070312 Z M 20.34375 22.335938 L 21.023438 22.335938 L 21.023438 23.789062 L 20.34375 23.789062 C 20.214844 23.789062 20.109375 23.683594 20.109375 23.554688 L 20.109375 22.570312 C 20.109375 22.441406 20.214844 22.335938 20.34375 22.335938 Z M 6.066406 24.992188 L 4.058594 24.992188 C 3.691406 24.992188 3.386719 24.691406 3.386719 24.316406 L 3.386719 22.445312 L 14.214844 22.445312 L 14.214844 24.992188 L 9.566406 24.992188 C 9.566406 24.019531 8.785156 23.230469 7.816406 23.230469 C 6.847656 23.230469 6.066406 24.019531 6.066406 24.992188 Z M 7.816406 23.859375 C 8.441406 23.859375 8.945312 24.367188 8.945312 24.992188 C 8.945312 25.621094 8.441406 26.128906 7.816406 26.128906 C 7.195312 26.128906 6.6875 25.621094 6.6875 24.992188 C 6.6875 24.367188 7.195312 23.859375 7.816406 23.859375 Z M 17.886719 23.859375 C 18.511719 23.859375 19.015625 24.367188 19.015625 24.992188 C 19.015625 25.621094 18.511719 26.128906 17.886719 26.128906 C 17.265625 26.128906 16.757812 25.621094 16.757812 24.992188 C 16.757812 24.367188 17.265625 23.859375 17.886719 23.859375 Z M 17.886719 23.859375 "/></g></g></svg>