<svg xmlns="http://www.w3.org/2000/svg" xmlns:xlink="http://www.w3.org/1999/xlink" width="40" zoomAndPan="magnify" viewBox="0 0 30 30.000001" height="40" preserveAspectRatio="xMidYMid meet" version="1.2"><defs><clipPath id="b0f4d12e61"><path d="M 10 11 L 26 11 L 26 26.128906 L 10 26.128906 Z M 10 11 "/></clipPath><clipPath id="35fbb801dd"><path d="M 22 15 L 26.613281 15 L 26.613281 22 L 22 22 Z M 22 15 "/></clipPath><clipPath id="0fc4e24002"><path d="M 15 2.902344 L 26.613281 2.902344 L 26.613281 15 L 15 15 Z M 15 2.902344 "/></clipPath><clipPath id="a0484ca0bd"><path d="M 3.386719 2.902344 L 15 2.902344 L 15 15 L 3.386719 15 Z M 3.386719 2.902344 "/></clipPath></defs><g id="1bcf8c41ab"><g clip-rule="nonzero" clip-path="url(#b0f4d12e61)"><path style=" stroke:none;fill-rule:nonzero;fill:#000000;fill-opacity:1;" d="M 25.75 26.132812 L 19.730469 26.132812 L 18.769531 25.171875 C 18.285156 24.6875 17.621094 24.414062 16.933594 24.414062 C 16.246094 24.414062 15.582031 24.136719 15.097656 23.652344 L 13.535156 22.089844 C 13.097656 21.652344 12.847656 21.054688 12.847656 20.429688 L 12.847656 17.773438 L 14.207031 19.914062 C 14.289062 20.042969 14.425781 20.109375 14.570312 20.109375 C 14.796875 20.109375 14.996094 19.925781 15 19.679688 C 15 19.601562 14.976562 19.519531 14.929688 19.449219 L 10.871094 13.167969 C 10.757812 12.992188 10.695312 12.796875 10.695312 12.601562 C 10.695312 11.964844 11.207031 11.507812 11.753906 11.507812 C 12.136719 11.507812 12.46875 11.675781 12.675781 12 L 15.296875 16.046875 C 16.199219 15.894531 17.066406 15.808594 18.082031 15.808594 L 19.222656 15.808594 C 20.691406 15.808594 21.324219 16.789062 21.871094 17.515625 C 22.726562 18.652344 23.257812 19.992188 23.410156 21.402344 C 23.515625 22.34375 23.511719 22.996094 24.070312 23.78125 Z M 25.75 26.132812 "/></g><g clip-rule="nonzero" clip-path="url(#35fbb801dd)"><path style=" stroke:none;fill-rule:nonzero;fill:#000000;fill-opacity:1;" d="M 25.535156 21.832031 C 25.246094 21.832031 24.984375 21.636719 24.910156 21.34375 C 24.097656 18.089844 22.878906 16.425781 22.867188 16.410156 C 22.65625 16.125 22.714844 15.71875 23 15.507812 C 23.285156 15.292969 23.6875 15.351562 23.902344 15.636719 C 23.957031 15.710938 25.28125 17.5 26.164062 21.027344 C 26.25 21.375 26.039062 21.726562 25.691406 21.8125 C 25.640625 21.824219 25.585938 21.832031 25.535156 21.832031 Z M 25.535156 21.832031 "/></g><path style=" stroke:none;fill-rule:nonzero;fill:#000000;fill-opacity:1;" d="M 6.179688 17.53125 L 4.890625 17.53125 C 4.535156 17.53125 4.246094 17.242188 4.246094 16.886719 C 4.246094 16.527344 4.535156 16.238281 4.890625 16.238281 L 6.179688 16.238281 C 6.535156 16.238281 6.824219 16.527344 6.824219 16.886719 C 6.824219 17.242188 6.535156 17.53125 6.179688 17.53125 Z M 6.179688 17.53125 "/><path style=" stroke:none;fill-rule:nonzero;fill:#000000;fill-opacity:1;" d="M 10.480469 24.84375 C 10.414062 24.84375 10.34375 24.832031 10.277344 24.808594 C 9.941406 24.695312 9.757812 24.332031 9.871094 23.992188 L 10.300781 22.703125 C 10.414062 22.363281 10.777344 22.179688 11.117188 22.292969 C 11.453125 22.40625 11.636719 22.773438 11.523438 23.109375 L 11.09375 24.402344 C 11.003906 24.671875 10.753906 24.84375 10.480469 24.84375 Z M 10.480469 24.84375 "/><path style=" stroke:none;fill-rule:nonzero;fill:#000000;fill-opacity:1;" d="M 7.039062 21.832031 C 6.875 21.832031 6.710938 21.769531 6.585938 21.640625 C 6.332031 21.390625 6.332031 20.980469 6.585938 20.730469 L 7.445312 19.867188 C 7.695312 19.617188 8.105469 19.617188 8.359375 19.867188 C 8.609375 20.121094 8.609375 20.527344 8.359375 20.78125 L 7.496094 21.640625 C 7.371094 21.769531 7.207031 21.832031 7.039062 21.832031 Z M 7.039062 21.832031 "/><g clip-rule="nonzero" clip-path="url(#0fc4e24002)"><path style=" stroke:none;fill-rule:nonzero;fill:#000000;fill-opacity:1;" d="M 21.019531 2.90625 C 17.933594 2.90625 15.429688 5.410156 15.429688 8.496094 C 15.429688 11.585938 17.933594 14.089844 21.019531 14.089844 C 24.109375 14.089844 26.613281 11.585938 26.613281 8.496094 C 26.613281 5.410156 24.109375 2.90625 21.019531 2.90625 Z M 24.460938 10.308594 L 22.832031 11.9375 L 21.019531 10.128906 L 19.210938 11.9375 L 17.578125 10.308594 L 19.390625 8.496094 L 17.578125 6.6875 L 19.210938 5.054688 L 21.019531 6.867188 L 22.832031 5.054688 L 24.460938 6.6875 L 22.648438 8.496094 Z M 24.460938 10.308594 "/></g><g clip-rule="nonzero" clip-path="url(#a0484ca0bd)"><path style=" stroke:none;fill-rule:nonzero;fill:#000000;fill-opacity:1;" d="M 8.976562 2.90625 C 5.886719 2.90625 3.386719 5.410156 3.386719 8.496094 C 3.386719 11.585938 5.886719 14.089844 8.976562 14.089844 C 9.445312 14.089844 9.898438 14.03125 10.332031 13.921875 L 10.144531 13.636719 C 9.941406 13.320312 9.835938 12.96875 9.835938 12.59375 C 9.835938 11.484375 10.730469 10.648438 11.773438 10.648438 C 12.433594 10.648438 13.042969 10.980469 13.398438 11.535156 L 13.53125 11.742188 C 14.179688 10.824219 14.566406 9.707031 14.566406 8.496094 C 14.566406 5.410156 12.066406 2.90625 8.976562 2.90625 Z M 8.355469 11.507812 L 4.675781 8.699219 L 5.773438 7.230469 L 8.03125 8.953125 L 10.957031 5.488281 L 12.417969 6.691406 Z M 8.355469 11.507812 "/></g></g></svg>