<svg xmlns="http://www.w3.org/2000/svg" xmlns:xlink="http://www.w3.org/1999/xlink" width="40" zoomAndPan="magnify" viewBox="0 0 30 30.000001" height="40" preserveAspectRatio="xMidYMid meet" version="1.2"><defs><clipPath id="b55da225af"><path d="M 13 15 L 23 15 L 23 21.164062 L 13 21.164062 Z M 13 15 "/></clipPath><clipPath id="6b64d31903"><path d="M 3.386719 14 L 8 14 L 8 20 L 3.386719 20 Z M 3.386719 14 "/></clipPath><clipPath id="a6d50f90d4"><path d="M 9 8.101562 L 15 8.101562 L 15 12 L 9 12 Z M 9 8.101562 "/></clipPath><clipPath id="1cdfbf7ef1"><path d="M 15 8.101562 L 21 8.101562 L 21 12 L 15 12 Z M 15 8.101562 "/></clipPath><clipPath id="ca3a60680a"><path d="M 22 14 L 26.613281 14 L 26.613281 20 L 22 20 Z M 22 14 "/></clipPath></defs><g id="e240df3985"><g clip-rule="nonzero" clip-path="url(#b55da225af)"><path style=" stroke:none;fill-rule:evenodd;fill:#000000;fill-opacity:1;" d="M 16.066406 20.082031 C 16.015625 20.40625 15.824219 20.695312 15.539062 20.863281 C 15.027344 21.164062 14.367188 20.984375 14.070312 20.460938 C 13.773438 19.9375 13.949219 19.265625 14.464844 18.964844 C 14.75 18.796875 15.089844 18.769531 15.390625 18.890625 L 21.957031 15.609375 L 22.140625 15.929688 Z M 16.066406 20.082031 "/></g><g clip-rule="nonzero" clip-path="url(#6b64d31903)"><path style=" stroke:none;fill-rule:evenodd;fill:#000000;fill-opacity:1;" d="M 6.109375 19.910156 C 6.109375 18.261719 6.539062 16.714844 7.296875 15.382812 L 4.953125 14.003906 C 3.964844 15.742188 3.402344 17.757812 3.402344 19.910156 Z M 6.109375 19.910156 "/></g><path style=" stroke:none;fill-rule:evenodd;fill:#000000;fill-opacity:1;" d="M 7.511719 15.023438 C 8.28125 13.808594 9.324219 12.789062 10.554688 12.066406 L 9.199219 9.679688 C 7.558594 10.644531 6.171875 12.007812 5.167969 13.640625 Z M 7.511719 15.023438 "/><g clip-rule="nonzero" clip-path="url(#a6d50f90d4)"><path style=" stroke:none;fill-rule:evenodd;fill:#000000;fill-opacity:1;" d="M 14.792969 8.097656 C 13.042969 8.128906 11.390625 8.554688 9.910156 9.292969 C 9.792969 9.351562 9.675781 9.410156 9.5625 9.472656 L 10.917969 11.863281 C 10.976562 11.832031 11.039062 11.800781 11.097656 11.769531 C 12.21875 11.210938 13.46875 10.886719 14.792969 10.855469 Z M 14.792969 8.097656 "/></g><g clip-rule="nonzero" clip-path="url(#1cdfbf7ef1)"><path style=" stroke:none;fill-rule:evenodd;fill:#000000;fill-opacity:1;" d="M 20.4375 9.472656 C 20.324219 9.410156 20.207031 9.351562 20.089844 9.292969 C 18.609375 8.554688 16.957031 8.128906 15.207031 8.097656 L 15.207031 10.855469 C 16.53125 10.886719 17.78125 11.210938 18.902344 11.769531 C 18.960938 11.800781 19.023438 11.832031 19.082031 11.863281 Z M 20.4375 9.472656 "/></g><path style=" stroke:none;fill-rule:evenodd;fill:#000000;fill-opacity:1;" d="M 24.832031 13.640625 C 23.828125 12.007812 22.441406 10.644531 20.800781 9.679688 L 19.445312 12.066406 C 20.675781 12.789062 21.71875 13.808594 22.488281 15.023438 Z M 24.832031 13.640625 "/><g clip-rule="nonzero" clip-path="url(#ca3a60680a)"><path style=" stroke:none;fill-rule:evenodd;fill:#000000;fill-opacity:1;" d="M 26.597656 19.910156 C 26.597656 17.757812 26.035156 15.742188 25.046875 14.003906 L 22.703125 15.382812 C 23.460938 16.714844 23.890625 18.261719 23.890625 19.910156 Z M 26.597656 19.910156 "/></g></g></svg>