<svg xmlns="http://www.w3.org/2000/svg" xmlns:xlink="http://www.w3.org/1999/xlink" width="40" zoomAndPan="magnify" viewBox="0 0 30 30.000001" height="40" preserveAspectRatio="xMidYMid meet" version="1.2"><defs><clipPath id="0d317b9d48"><path d="M 4.285156 12 L 18 12 L 18 22 L 4.285156 22 Z M 4.285156 12 "/></clipPath><clipPath id="40e12c2136"><path d="M 7 2.902344 L 17 2.902344 L 17 13 L 7 13 Z M 7 2.902344 "/></clipPath><clipPath id="d8b98e8102"><path d="M 12 13 L 26 13 L 26 26.128906 L 12 26.128906 Z M 12 13 "/></clipPath></defs><g id="9d7abbb106"><g clip-rule="nonzero" clip-path="url(#0d317b9d48)"><path style=" stroke:none;fill-rule:nonzero;fill:#000000;fill-opacity:1;" d="M 16.851562 17.378906 C 16.726562 16.230469 17.023438 15.117188 17.648438 14.171875 C 17.007812 13.484375 16.234375 12.902344 15.363281 12.503906 C 14.402344 13.132812 13.234375 13.507812 11.980469 13.507812 C 10.738281 13.507812 9.570312 13.132812 8.609375 12.503906 C 6.050781 13.726562 4.292969 16.316406 4.292969 19.304688 L 4.292969 20.296875 C 4.292969 21.023438 4.882812 21.605469 5.609375 21.605469 L 12.558594 21.605469 Z M 16.851562 17.378906 "/></g><g clip-rule="nonzero" clip-path="url(#40e12c2136)"><path style=" stroke:none;fill-rule:nonzero;fill:#000000;fill-opacity:1;" d="M 11.984375 12.152344 C 14.582031 12.152344 16.6875 10.082031 16.6875 7.527344 C 16.6875 4.972656 14.582031 2.902344 11.984375 2.902344 C 9.390625 2.902344 7.285156 4.972656 7.285156 7.527344 C 7.285156 10.082031 9.390625 12.152344 11.984375 12.152344 Z M 11.984375 12.152344 "/></g><g clip-rule="nonzero" clip-path="url(#d8b98e8102)"><path style=" stroke:none;fill-rule:nonzero;fill:#000000;fill-opacity:1;" d="M 23.449219 13.707031 C 22.453125 13.1875 21.214844 13.1875 20.21875 13.703125 C 18.535156 14.570312 17.941406 16.328125 18.378906 17.851562 L 12.542969 23.59375 C 12.511719 23.667969 12.484375 23.730469 12.453125 23.804688 L 12.4375 25.835938 C 12.445312 25.992188 12.578125 26.121094 12.738281 26.128906 L 14.644531 26.121094 C 14.804688 26.121094 14.933594 25.992188 14.933594 25.835938 L 14.933594 24.65625 C 14.933594 24.59375 14.984375 24.539062 15.050781 24.539062 L 16.222656 24.546875 C 16.382812 24.550781 16.515625 24.421875 16.515625 24.261719 L 16.523438 23.085938 C 16.523438 23.023438 16.574219 22.972656 16.636719 22.972656 C 16.886719 22.972656 17.484375 22.96875 17.839844 22.957031 C 18 22.953125 18.125 22.824219 18.125 22.667969 L 18.125 21.515625 C 18.125 21.453125 18.175781 21.402344 18.238281 21.402344 L 19.53125 21.402344 C 19.648438 21.402344 19.761719 21.355469 19.84375 21.273438 L 20.851562 20.28125 C 22.074219 20.628906 23.429688 20.335938 24.386719 19.394531 C 26.058594 17.75 25.746094 14.898438 23.449219 13.707031 Z M 23.429688 16.722656 C 23.03125 17.113281 22.398438 17.105469 22.007812 16.722656 C 21.609375 16.332031 21.601562 15.707031 22 15.316406 C 22.398438 14.921875 23.03125 14.929688 23.429688 15.324219 C 23.820312 15.707031 23.828125 16.332031 23.429688 16.722656 Z M 23.429688 16.722656 "/></g></g></svg>