<svg xmlns="http://www.w3.org/2000/svg" xmlns:xlink="http://www.w3.org/1999/xlink" width="40" zoomAndPan="magnify" viewBox="0 0 30 30.000001" height="40" preserveAspectRatio="xMidYMid meet" version="1.2"><defs><clipPath id="9e878cb3c6"><path d="M 3.386719 3.28125 L 15 3.28125 L 15 25.78125 L 3.386719 25.78125 Z M 3.386719 3.28125 "/></clipPath><clipPath id="d0791ea2c9"><path d="M 9 3.28125 L 21 3.28125 L 21 13 L 9 13 Z M 9 3.28125 "/></clipPath><clipPath id="b10ed6e4dd"><path d="M 16 12 L 26.613281 12 L 26.613281 20 L 16 20 Z M 16 12 "/></clipPath></defs><g id="31a5130053"><g clip-rule="nonzero" clip-path="url(#9e878cb3c6)"><path style=" stroke:none;fill-rule:nonzero;fill:#000000;fill-opacity:1;" d="M 13.972656 5.34375 L 4.089844 3.355469 C 3.917969 3.324219 3.757812 3.367188 3.625 3.476562 C 3.488281 3.585938 3.429688 3.75 3.429688 3.925781 L 3.429688 22.917969 C 3.429688 23.347656 3.734375 23.71875 4.160156 23.804688 L 13.6875 25.714844 C 13.953125 25.765625 14.15625 25.699219 14.367188 25.523438 C 14.578125 25.351562 14.625 25.097656 14.625 24.824219 L 14.625 6.230469 C 14.625 5.800781 14.394531 5.425781 13.972656 5.34375 Z M 12.863281 16.640625 C 12.453125 16.640625 12.121094 16.308594 12.121094 15.898438 C 12.121094 15.488281 12.453125 15.160156 12.863281 15.160156 C 13.273438 15.160156 13.605469 15.488281 13.605469 15.898438 C 13.605469 16.308594 13.273438 16.640625 12.863281 16.640625 Z M 12.863281 16.640625 "/></g><g clip-rule="nonzero" clip-path="url(#d0791ea2c9)"><path style=" stroke:none;fill-rule:nonzero;fill:#000000;fill-opacity:1;" d="M 19.105469 13 L 20.597656 13 L 20.597656 4.777344 C 20.597656 3.949219 19.929688 3.28125 19.105469 3.28125 L 9.402344 3.28125 L 15.375 4.777344 L 19.105469 4.777344 Z M 19.105469 13 "/></g><path style=" stroke:none;fill-rule:nonzero;fill:#000000;fill-opacity:1;" d="M 19.105469 21.96875 L 16.121094 21.96875 L 16.121094 23.464844 L 19.105469 23.464844 C 19.929688 23.464844 20.597656 22.792969 20.597656 21.96875 L 20.597656 18.976562 L 19.105469 18.976562 Z M 19.105469 21.96875 "/><g clip-rule="nonzero" clip-path="url(#b10ed6e4dd)"><path style=" stroke:none;fill-rule:nonzero;fill:#000000;fill-opacity:1;" d="M 26.570312 15.988281 L 22.089844 12.25 L 22.089844 14.492188 L 17.613281 14.492188 C 17.199219 14.492188 16.867188 14.828125 16.867188 15.242188 L 16.867188 16.734375 C 16.867188 17.148438 17.199219 17.484375 17.613281 17.484375 L 22.089844 17.484375 L 22.089844 19.726562 Z M 26.570312 15.988281 "/></g></g></svg>