<svg xmlns="http://www.w3.org/2000/svg" xmlns:xlink="http://www.w3.org/1999/xlink" width="750" zoomAndPan="magnify" viewBox="0 0 562.5 562.499982" height="750" preserveAspectRatio="xMidYMid meet" version="1.2"><defs><clipPath id="26d8fe4322"><path d="M 3 3 L 559 3 L 559 559 L 3 559 Z M 3 3 "/></clipPath><clipPath id="ccb8d54e50"><path d="M 296.152344 -101.242188 L 663.34375 265.949219 L 265.949219 663.34375 L -101.242188 296.152344 Z M 296.152344 -101.242188 "/></clipPath><clipPath id="9ac8bdbed2"><path d="M 296.152344 -101.242188 L 663.34375 265.949219 L 265.949219 663.34375 L -101.242188 296.152344 Z M 296.152344 -101.242188 "/></clipPath><clipPath id="46acab332a"><path d="M 278 168.601562 L 285 168.601562 L 285 202 L 278 202 Z M 278 168.601562 "/></clipPath><clipPath id="20b5430ec1"><path d="M 188.421875 228 L 221 228 L 221 246 L 188.421875 246 Z M 188.421875 228 "/></clipPath><clipPath id="fc6e6fdd0e"><path d="M 341 228 L 373.507812 228 L 373.507812 246 L 341 246 Z M 341 228 "/></clipPath></defs><g id="baa4dace2e"><g clip-rule="nonzero" clip-path="url(#26d8fe4322)"><g clip-rule="nonzero" clip-path="url(#ccb8d54e50)"><g clip-rule="nonzero" clip-path="url(#9ac8bdbed2)"><path style=" stroke:none;fill-rule:evenodd;fill:#ffffff;fill-opacity:1;" d="M 385.386719 504.277344 L 389.558594 539.289062 C 366.082031 549.15625 341.371094 555.777344 316.109375 558.96875 L 294.097656 507.625 C 285.371094 508.128906 276.621094 508.128906 267.894531 507.625 L 245.886719 558.96875 C 220.621094 555.777344 195.910156 549.15625 172.433594 539.289062 L 179.046875 483.816406 C 171.234375 479.890625 163.660156 475.519531 156.355469 470.71875 L 111.621094 504.175781 C 91.335938 488.78125 73.246094 470.691406 57.851562 450.40625 L 91.3125 405.675781 C 86.511719 398.371094 82.136719 390.792969 78.210938 382.984375 L 22.738281 389.59375 C 12.871094 366.117188 6.25 341.40625 3.058594 316.144531 L 54.402344 294.132812 C 53.898438 285.40625 53.898438 276.65625 54.402344 267.929688 L 3.058594 245.921875 C 6.25 220.65625 12.871094 195.945312 22.738281 172.46875 L 57.75 176.640625 L 102.792969 221.6875 C 92.789062 252.039062 90.523438 284.945312 96.503906 316.34375 C 104.753906 359.65625 128.769531 399.394531 162.640625 426.925781 C 199.851562 457.171875 249.203125 472.253906 297.035156 468.171875 C 311.679688 466.921875 326.222656 463.863281 340.265625 459.15625 Z M 324.414062 443.304688 C 288.878906 452.625 250.433594 450.335938 216.546875 436.300781 C 175.765625 419.410156 142.289062 385.816406 125.53125 345.007812 C 111.671875 311.246094 109.300781 272.871094 118.644531 237.535156 L 143.820312 262.710938 C 138.347656 303.96875 151.449219 347.230469 183.125 378.90625 C 214.796875 410.578125 258.058594 423.679688 299.316406 418.207031 Z M 176.605469 57.785156 L 172.4375 22.773438 C 195.910156 12.90625 220.621094 6.285156 245.886719 3.09375 L 267.894531 54.4375 C 276.621094 53.933594 285.371094 53.933594 294.097656 54.4375 L 316.109375 3.09375 C 341.371094 6.285156 366.082031 12.90625 389.558594 22.773438 L 382.949219 78.246094 C 390.757812 82.171875 398.335938 86.546875 405.640625 91.34375 L 450.375 57.886719 C 470.65625 73.28125 488.746094 91.371094 504.140625 111.65625 L 470.683594 156.390625 C 475.484375 163.695312 479.855469 171.269531 483.785156 179.078125 L 539.253906 172.46875 C 549.121094 195.945312 555.742188 220.65625 558.933594 245.917969 L 507.589844 267.929688 C 508.097656 276.65625 508.097656 285.40625 507.589844 294.132812 L 558.933594 316.144531 C 555.742188 341.40625 549.121094 366.117188 539.253906 389.59375 L 504.242188 385.421875 L 459.023438 340.199219 C 469.433594 308.730469 471.597656 274.796875 464.824219 242.394531 C 457.4375 207.050781 439.597656 174.074219 414.042969 148.410156 C 413.902344 148.269531 413.757812 148.128906 413.617188 147.984375 C 395.148438 129.597656 372.828125 115.042969 348.492188 105.699219 C 308.441406 90.320312 263.164062 89.195312 222.367188 102.546875 C 222.117188 102.628906 221.867188 102.710938 221.617188 102.792969 Z M 237.546875 118.726562 C 253.410156 114.492188 269.882812 112.546875 286.289062 113.058594 C 328.539062 114.378906 369.765625 132.230469 399.660156 161.984375 C 399.851562 162.175781 400.046875 162.367188 400.238281 162.558594 C 407.1875 169.5625 413.546875 177.171875 419.171875 185.277344 C 447.285156 225.769531 455.738281 277.757812 443.351562 324.53125 L 418.175781 299.351562 C 423.644531 258.09375 410.546875 214.832031 378.871094 183.15625 C 347.195312 151.484375 303.933594 138.382812 262.675781 143.855469 Z M 237.546875 118.726562 "/></g></g></g><path style=" stroke:none;fill-rule:nonzero;fill:#ffffff;fill-opacity:1;" d="M 302.113281 378.855469 L 262.804688 363.433594 C 261.066406 362.6875 259.324219 363.433594 258.824219 365.171875 C 258.328125 366.914062 259.074219 368.65625 260.566406 369.152344 L 299.871094 384.578125 C 300.617188 384.828125 302.859375 385.324219 303.851562 383.085938 C 304.847656 381.09375 303.355469 379.351562 302.113281 378.855469 Z M 302.113281 378.855469 "/><path style=" stroke:none;fill-rule:nonzero;fill:#ffffff;fill-opacity:1;" d="M 282.957031 386.816406 L 262.804688 378.855469 C 261.3125 378.109375 259.324219 378.855469 258.578125 380.347656 C 257.832031 381.839844 258.578125 383.832031 260.070312 384.578125 C 260.070312 384.578125 280.46875 392.539062 280.46875 392.539062 C 281.464844 392.785156 283.203125 393.285156 284.449219 390.796875 C 285.195312 389.304688 284.449219 387.3125 282.957031 386.816406 Z M 282.957031 386.816406 "/><path style=" stroke:none;fill-rule:nonzero;fill:#ffffff;fill-opacity:1;" d="M 305.59375 206.457031 C 305.84375 206.707031 306.339844 206.707031 306.839844 206.707031 C 308.082031 206.707031 309.324219 205.960938 309.824219 204.714844 L 319.773438 179.589844 C 320.519531 178.097656 319.527344 176.109375 318.03125 175.609375 C 316.539062 174.863281 314.550781 175.859375 314.050781 177.351562 L 304.101562 202.476562 C 303.105469 203.96875 303.851562 205.960938 305.59375 206.457031 Z M 305.59375 206.457031 "/><g clip-rule="nonzero" clip-path="url(#46acab332a)"><path style=" stroke:none;fill-rule:nonzero;fill:#ffffff;fill-opacity:1;" d="M 281.464844 201.730469 C 283.207031 201.730469 284.449219 200.238281 284.449219 198.746094 L 284.449219 171.628906 C 284.449219 169.886719 282.957031 168.644531 281.464844 168.644531 C 279.972656 168.644531 278.476562 170.136719 278.476562 171.628906 L 278.476562 198.746094 C 278.230469 200.488281 279.722656 201.730469 281.464844 201.730469 Z M 281.464844 201.730469 "/></g><path style=" stroke:none;fill-rule:nonzero;fill:#ffffff;fill-opacity:1;" d="M 230.714844 220.886719 C 231.210938 221.382812 231.957031 221.882812 232.953125 221.882812 C 233.699219 221.882812 234.695312 221.632812 235.191406 220.886719 C 236.4375 219.644531 236.4375 217.652344 235.191406 216.410156 L 216.035156 197.253906 C 214.792969 196.007812 212.804688 196.257812 211.558594 197.503906 C 210.5625 198.746094 210.5625 200.488281 211.558594 201.730469 Z M 230.714844 220.886719 "/><g clip-rule="nonzero" clip-path="url(#20b5430ec1)"><path style=" stroke:none;fill-rule:nonzero;fill:#ffffff;fill-opacity:1;" d="M 220.515625 243.027344 C 221.261719 241.535156 220.265625 239.542969 218.773438 239.046875 L 193.648438 229.097656 C 192.15625 228.101562 190.164062 228.597656 189.417969 230.089844 C 188.421875 231.582031 188.921875 233.574219 190.414062 234.320312 C 190.664062 234.570312 216.785156 244.769531 216.785156 244.769531 C 217.03125 245.015625 217.53125 245.015625 218.027344 245.015625 C 219.023438 245.015625 220.015625 244.269531 220.515625 243.027344 Z M 220.515625 243.027344 "/></g><path style=" stroke:none;fill-rule:nonzero;fill:#ffffff;fill-opacity:1;" d="M 253.105469 204.714844 C 253.601562 205.960938 254.84375 206.707031 256.089844 206.707031 C 256.585938 206.707031 256.835938 206.707031 257.332031 206.457031 C 258.824219 205.710938 259.820312 203.96875 259.074219 202.476562 L 249.125 177.351562 C 248.378906 175.859375 246.636719 174.863281 245.144531 175.609375 C 243.652344 176.355469 242.65625 178.097656 243.402344 179.589844 Z M 253.105469 204.714844 "/><path style=" stroke:none;fill-rule:nonzero;fill:#ffffff;fill-opacity:1;" d="M 329.726562 221.882812 C 330.472656 221.882812 331.21875 221.632812 331.964844 220.886719 L 351.121094 201.730469 C 352.363281 200.488281 352.613281 198.746094 351.367188 197.253906 C 350.125 196.007812 348.382812 195.761719 346.890625 197.003906 C 346.890625 197.003906 346.640625 197.253906 346.640625 197.253906 L 327.484375 216.410156 C 326.242188 217.652344 326.242188 219.644531 327.484375 220.886719 C 328.234375 221.632812 328.980469 221.882812 329.726562 221.882812 Z M 329.726562 221.882812 "/><g clip-rule="nonzero" clip-path="url(#fc6e6fdd0e)"><path style=" stroke:none;fill-rule:nonzero;fill:#ffffff;fill-opacity:1;" d="M 373.011719 230.835938 C 372.265625 229.34375 370.523438 228.597656 369.03125 229.097656 L 343.90625 239.046875 C 342.414062 239.792969 341.417969 241.535156 342.164062 243.027344 C 342.660156 244.269531 343.65625 245.015625 345.148438 245.015625 C 345.648438 245.015625 345.894531 245.015625 346.394531 244.769531 L 371.519531 234.816406 C 372.761719 234.320312 373.507812 232.328125 373.011719 230.835938 Z M 373.011719 230.835938 "/></g><path style=" stroke:none;fill-rule:nonzero;fill:#ffffff;fill-opacity:1;" d="M 268.527344 258.203125 C 268.527344 260.691406 271.015625 263.425781 273.253906 264.171875 L 278.726562 266.410156 L 278.726562 242.53125 L 276.738281 242.53125 C 272.257812 242.53125 268.527344 246.261719 268.527344 250.738281 C 268.527344 250.738281 268.527344 258.203125 268.527344 258.203125 Z M 268.527344 258.203125 "/><path style=" stroke:none;fill-rule:nonzero;fill:#ffffff;fill-opacity:1;" d="M 285.195312 299 L 285.941406 299 C 290.417969 299 294.152344 295.269531 294.152344 290.792969 L 294.152344 283.078125 C 294.152344 281.089844 292.660156 278.351562 289.175781 276.859375 L 285.195312 275.617188 Z M 285.195312 299 "/><path style=" stroke:none;fill-rule:nonzero;fill:#ffffff;fill-opacity:1;" d="M 280.46875 206.957031 C 246.386719 207.453125 218.773438 235.316406 219.023438 269.398438 C 219.023438 287.058594 226.484375 303.726562 239.421875 315.667969 C 239.917969 315.917969 240.417969 316.664062 241.164062 317.160156 C 250.863281 325.867188 256.835938 338.058594 258.078125 350.992188 C 258.328125 351.988281 259.074219 352.984375 260.070312 353.480469 L 299.375 368.90625 C 299.625 369.152344 301.367188 369.402344 302.113281 368.65625 C 302.859375 368.160156 303.605469 367.164062 303.605469 366.167969 L 304.597656 350.746094 C 305.84375 337.808594 311.8125 325.867188 321.515625 317.160156 L 323.507812 315.667969 C 348.878906 292.285156 350.621094 252.976562 327.484375 227.601562 C 316.042969 214.914062 299.625 207.703125 282.707031 207.453125 C 281.960938 206.957031 280.71875 206.957031 280.46875 206.957031 Z M 300.121094 254.222656 C 300.121094 255.964844 298.628906 257.207031 297.136719 257.207031 C 295.644531 257.207031 294.152344 255.714844 294.152344 254.222656 L 294.152344 250.738281 C 294.152344 246.261719 290.667969 242.53125 286.191406 242.53125 L 285.445312 242.53125 L 285.445312 268.898438 C 285.445312 268.898438 292.410156 271.636719 292.410156 271.636719 C 297.882812 274.125 300.371094 279.097656 300.371094 283.328125 L 300.371094 291.039062 C 300.371094 299 293.902344 305.46875 285.941406 305.46875 L 285.195312 305.46875 L 285.195312 310.195312 C 285.195312 311.9375 283.703125 313.179688 282.210938 313.179688 C 280.71875 313.179688 279.226562 311.6875 279.226562 310.195312 L 279.226562 305.46875 L 277.234375 305.46875 C 269.273438 305.46875 262.804688 299 262.804688 291.039062 L 262.804688 287.558594 C 262.804688 285.816406 264.296875 284.570312 265.792969 284.570312 C 267.285156 284.570312 268.777344 286.0625 268.777344 287.558594 L 268.777344 291.039062 C 268.777344 295.519531 272.507812 299.25 276.984375 299.25 L 278.976562 299.25 L 278.976562 273.128906 C 278.976562 273.128906 270.519531 269.894531 270.269531 269.644531 C 265.042969 267.40625 262.558594 262.429688 262.558594 258.203125 L 262.558594 250.738281 C 262.558594 242.777344 269.023438 236.308594 276.984375 236.308594 L 278.976562 236.308594 L 278.976562 231.832031 C 278.976562 230.089844 280.46875 228.847656 281.960938 228.847656 C 283.453125 228.847656 284.945312 230.339844 284.945312 231.832031 L 284.945312 236.308594 L 285.941406 236.308594 C 293.902344 236.308594 300.371094 242.777344 300.121094 250.738281 Z M 300.121094 254.222656 "/></g></svg>