<svg xmlns="http://www.w3.org/2000/svg" xmlns:xlink="http://www.w3.org/1999/xlink" width="500" zoomAndPan="magnify" viewBox="0 0 375 374.999991" height="500" preserveAspectRatio="xMidYMid meet" version="1.2"><defs><clipPath id="1de9e917b6"><path d="M 215 2.8125 L 302 2.8125 L 302 53 L 215 53 Z M 215 2.8125 "/></clipPath><clipPath id="077b631f7e"><path d="M 193 174 L 374 174 L 374 372.5625 L 193 372.5625 Z M 193 174 "/></clipPath></defs><g id="ffc6329b04"><path style=" stroke:none;fill-rule:nonzero;fill:#a6a6a6;fill-opacity:1;" d="M 254.296875 273.824219 C 252.636719 270.945312 249.933594 268.878906 246.6875 268.011719 C 243.4375 267.140625 240.0625 267.578125 237.183594 269.242188 L 176.390625 304.328125 C 168.460938 308.921875 165 310.09375 158.789062 308.449219 L 150.796875 306.332031 C 150.785156 306.328125 150.769531 306.324219 150.757812 306.320312 L 100.554688 293.027344 C 97.644531 292.253906 95.910156 289.273438 96.679688 286.363281 C 97.453125 283.453125 100.4375 281.71875 103.34375 282.488281 L 153.648438 295.808594 C 159.136719 297.222656 164.542969 294.160156 165.972656 288.800781 C 166.6875 286.152344 166.316406 283.378906 164.933594 280.984375 C 163.550781 278.585938 161.332031 276.875 158.683594 276.164062 L 91.867188 258.269531 C 91.761719 258.238281 91.660156 258.207031 91.554688 258.175781 C 88.238281 257.066406 83.832031 257.503906 80.839844 259.226562 L 45.777344 279.492188 L 71.742188 324.472656 C 73.195312 324.074219 74.570312 323.910156 75.941406 323.910156 C 78.125 323.910156 80.296875 324.324219 82.746094 324.871094 C 82.824219 324.886719 82.898438 324.90625 82.972656 324.925781 L 149.589844 342.777344 C 154.140625 343.992188 158.917969 343.347656 163.039062 340.964844 L 249.71875 290.9375 C 255.699219 287.484375 257.753906 279.804688 254.300781 273.824219 Z M 254.296875 273.824219 "/><path style=" stroke:none;fill-rule:nonzero;fill:#a6a6a6;fill-opacity:1;" d="M 64.773438 334.191406 C 64.75 334.152344 64.726562 334.121094 64.703125 334.085938 L 33.613281 280.222656 C 33.605469 280.207031 33.597656 280.195312 33.589844 280.179688 L 28.648438 271.617188 C 28.191406 270.828125 27.410156 270.242188 26.507812 270.011719 C 26.027344 269.890625 25.078125 269.765625 24.144531 270.332031 L 2.492188 283.539062 C 0.816406 284.5625 0.226562 286.613281 1.148438 288.207031 L 44.488281 363.28125 C 44.949219 364.074219 45.738281 364.667969 46.644531 364.898438 C 47.121094 365.019531 48.058594 365.136719 48.972656 364.578125 L 70.648438 351.355469 C 72.320312 350.335938 72.90625 348.285156 71.984375 346.679688 Z M 26.980469 301.125 C 26.125 301.625 25.183594 301.859375 24.257812 301.859375 C 22.375 301.859375 20.546875 300.882812 19.535156 299.136719 L 14.394531 290.242188 C 12.886719 287.636719 13.78125 284.300781 16.386719 282.796875 C 18.992188 281.289062 22.324219 282.179688 23.832031 284.789062 L 28.972656 293.679688 C 30.480469 296.285156 29.589844 299.621094 26.980469 301.125 Z M 26.980469 301.125 "/><path style=" stroke:none;fill-rule:nonzero;fill:#a6a6a6;fill-opacity:1;" d="M 237.855469 91.980469 L 239.402344 92.875 L 252 100.140625 L 252 73.25 C 252 71.304688 253.039062 69.503906 254.726562 68.53125 L 326.261719 27.21875 L 312.132812 19.0625 L 237.859375 61.945312 L 237.859375 91.980469 Z M 237.855469 91.980469 "/><g clip-rule="nonzero" clip-path="url(#1de9e917b6)"><path style=" stroke:none;fill-rule:nonzero;fill:#a6a6a6;fill-opacity:1;" d="M 301.230469 12.769531 L 283.996094 2.820312 L 215.171875 42.558594 L 232.402344 52.507812 Z M 301.230469 12.769531 "/></g><path style=" stroke:none;fill-rule:nonzero;fill:#a6a6a6;fill-opacity:1;" d="M 289.449219 171.210938 L 358.273438 131.472656 L 358.273438 51.996094 L 289.449219 91.734375 Z M 289.449219 171.210938 "/><path style=" stroke:none;fill-rule:nonzero;fill:#a6a6a6;fill-opacity:1;" d="M 283.996094 82.292969 L 352.824219 42.554688 L 337.160156 33.511719 L 268.34375 73.257812 Z M 283.996094 82.292969 "/><path style=" stroke:none;fill-rule:nonzero;fill:#a6a6a6;fill-opacity:1;" d="M 218.777344 136.699219 L 278.546875 171.195312 L 278.546875 91.734375 L 262.902344 82.703125 L 262.902344 109.574219 C 262.902344 111.519531 261.863281 113.316406 260.175781 114.292969 C 259.332031 114.777344 258.394531 115.023438 257.449219 115.023438 C 256.507812 115.023438 255.570312 114.78125 254.730469 114.292969 L 229.671875 99.832031 C 227.992188 98.855469 226.957031 97.0625 226.957031 95.117188 L 226.957031 61.945312 L 209.722656 51.996094 L 209.722656 119.273438 L 216.246094 125.796875 C 219.089844 128.640625 219.953125 132.652344 218.777344 136.695312 Z M 218.777344 136.699219 "/><path style=" stroke:none;fill-rule:nonzero;fill:#a6a6a6;fill-opacity:1;" d="M 158.375 158.691406 C 149.125 158.691406 141.601562 166.207031 141.601562 175.441406 C 141.601562 184.675781 149.125 192.210938 158.375 192.210938 C 167.621094 192.210938 175.144531 184.6875 175.144531 175.441406 C 175.144531 166.195312 167.621094 158.691406 158.375 158.691406 Z M 158.375 158.691406 "/><path style=" stroke:none;fill-rule:nonzero;fill:#737373;fill-opacity:1;" d="M 35.835938 45.253906 C 35.808594 45.273438 35.78125 45.292969 35.753906 45.308594 C 35.769531 45.300781 35.800781 45.28125 35.835938 45.253906 Z M 35.835938 45.253906 "/><path style=" stroke:none;fill-rule:nonzero;fill:#a6a6a6;fill-opacity:1;" d="M 171.328125 128.511719 C 169.382812 127.980469 167.890625 126.425781 167.445312 124.460938 L 164.554688 111.753906 C 164.382812 110.984375 164.136719 110.53125 163.988281 110.324219 L 152.761719 110.324219 C 152.613281 110.53125 152.363281 110.984375 152.195312 111.738281 L 149.300781 124.460938 C 148.855469 126.425781 147.363281 127.980469 145.421875 128.511719 C 141.550781 129.566406 137.820312 131.113281 134.332031 133.105469 C 132.585938 134.105469 130.429688 134.058594 128.722656 132.984375 L 117.691406 126.035156 C 117.035156 125.621094 116.539062 125.472656 116.285156 125.429688 L 108.347656 133.367188 C 108.394531 133.625 108.546875 134.117188 108.960938 134.769531 L 115.902344 145.820312 C 116.96875 147.519531 117.015625 149.667969 116.019531 151.414062 C 114.019531 154.929688 112.472656 158.660156 111.421875 162.496094 C 110.890625 164.433594 109.332031 165.921875 107.375 166.367188 L 94.664062 169.257812 C 93.902344 169.433594 93.441406 169.6875 93.234375 169.839844 L 93.234375 181.058594 C 93.441406 181.207031 93.894531 181.449219 94.648438 181.621094 L 107.375 184.515625 C 109.335938 184.960938 110.894531 186.453125 111.421875 188.394531 C 112.472656 192.234375 114.019531 195.96875 116.019531 199.488281 C 117.011719 201.234375 116.96875 203.382812 115.898438 205.085938 L 108.96875 216.117188 C 108.546875 216.785156 108.394531 217.28125 108.347656 217.535156 L 116.285156 225.472656 C 116.539062 225.429688 117.035156 225.285156 117.691406 224.871094 L 128.722656 217.917969 C 130.421875 216.851562 132.566406 216.796875 134.3125 217.785156 C 137.882812 219.804688 141.617188 221.355469 145.421875 222.390625 C 147.363281 222.921875 148.855469 224.476562 149.300781 226.441406 L 152.191406 239.152344 C 152.367188 239.917969 152.613281 240.375 152.761719 240.582031 L 163.988281 240.582031 C 164.136719 240.375 164.382812 239.921875 164.554688 239.164062 L 167.445312 226.441406 C 167.894531 224.476562 169.386719 222.921875 171.328125 222.390625 C 175.199219 221.335938 178.925781 219.789062 182.414062 217.796875 C 184.160156 216.796875 186.320312 216.84375 188.023438 217.917969 L 199.058594 224.871094 C 199.714844 225.28125 200.207031 225.433594 200.460938 225.472656 L 208.394531 217.542969 C 208.351562 217.289062 208.207031 216.792969 207.789062 216.132812 L 200.847656 205.082031 C 199.78125 203.382812 199.734375 201.234375 200.726562 199.488281 C 202.691406 196.03125 204.242188 192.289062 205.332031 188.371094 C 205.867188 186.4375 207.421875 184.957031 209.375 184.511719 L 222.085938 181.621094 C 222.847656 181.449219 223.304688 181.203125 223.511719 181.054688 L 223.511719 169.84375 C 223.304688 169.691406 222.835938 169.433594 222.054688 169.25 L 209.375 166.367188 C 207.414062 165.921875 205.855469 164.433594 205.328125 162.492188 C 204.277344 158.660156 202.730469 154.933594 200.726562 151.414062 C 199.734375 149.667969 199.78125 147.519531 200.847656 145.820312 L 207.777344 134.785156 C 208.203125 134.113281 208.351562 133.613281 208.394531 133.359375 L 200.460938 125.429688 C 200.207031 125.472656 199.714844 125.621094 199.058594 126.03125 L 188.023438 132.984375 C 186.320312 134.058594 184.160156 134.105469 182.414062 133.105469 C 178.925781 131.113281 175.199219 129.566406 171.328125 128.511719 Z M 186.046875 175.441406 C 186.046875 190.699219 173.632812 203.113281 158.375 203.113281 C 143.113281 203.113281 130.703125 190.699219 130.703125 175.441406 C 130.703125 160.183594 143.113281 147.789062 158.375 147.789062 C 173.632812 147.789062 186.046875 160.195312 186.046875 175.441406 Z M 186.046875 175.441406 "/><g clip-rule="nonzero" clip-path="url(#077b631f7e)"><path style=" stroke:none;fill-rule:nonzero;fill:#737373;fill-opacity:1;" d="M 373.019531 215.78125 C 371.222656 219.835938 367.34375 222.351562 362.910156 222.351562 L 356.882812 222.351562 L 356.882812 354.640625 C 356.882812 355.203125 356.851562 355.753906 356.804688 356.292969 C 356.789062 356.523438 356.757812 356.726562 356.734375 356.890625 C 356.71875 357.109375 356.6875 357.328125 356.640625 357.542969 L 356.585938 357.808594 C 356.5 358.300781 356.386719 358.796875 356.238281 359.351562 C 356.191406 359.53125 356.128906 359.746094 356.042969 359.980469 C 356.027344 360.027344 356.011719 360.066406 356.003906 360.105469 C 355.980469 360.175781 355.957031 360.246094 355.933594 360.316406 C 355.863281 360.558594 355.777344 360.789062 355.675781 361.015625 C 355.660156 361.0625 355.644531 361.109375 355.621094 361.15625 C 355.550781 361.367188 355.457031 361.578125 355.355469 361.78125 C 355.28125 361.964844 355.195312 362.144531 355.109375 362.324219 L 354.984375 362.574219 C 354.921875 362.699219 354.820312 362.894531 354.679688 363.125 C 354.65625 363.179688 354.625 363.226562 354.59375 363.273438 C 354.515625 363.429688 354.398438 363.625 354.253906 363.851562 C 354.160156 364.007812 354.082031 364.128906 354.019531 364.222656 L 353.972656 364.292969 C 353.910156 364.386719 353.855469 364.472656 353.792969 364.558594 L 353.457031 365.027344 C 353.410156 365.089844 353.363281 365.15625 353.316406 365.21875 C 353.0625 365.546875 352.703125 366 352.28125 366.457031 C 352.234375 366.503906 352.195312 366.550781 352.148438 366.589844 L 352.042969 366.707031 C 351.933594 366.824219 351.832031 366.933594 351.730469 367.035156 L 351.535156 367.238281 C 351.433594 367.328125 351.332031 367.421875 351.222656 367.515625 C 351.105469 367.625 350.96875 367.75 350.804688 367.882812 C 350.429688 368.226562 350.078125 368.496094 349.832031 368.683594 L 349.699219 368.777344 C 349.589844 368.871094 349.464844 368.957031 349.347656 369.035156 C 349.277344 369.082031 349.183594 369.152344 349.113281 369.191406 C 349.042969 369.246094 348.964844 369.292969 348.886719 369.339844 C 348.734375 369.449219 348.570312 369.539062 348.414062 369.640625 C 348.210938 369.773438 348 369.898438 347.78125 370.007812 L 346.738281 370.53125 C 346.585938 370.605469 346.421875 370.675781 346.265625 370.738281 C 346.117188 370.808594 345.921875 370.894531 345.695312 370.972656 C 345.625 371.003906 345.558594 371.027344 345.503906 371.050781 C 345.300781 371.128906 345.113281 371.199219 344.949219 371.246094 C 344.722656 371.339844 344.488281 371.410156 344.257812 371.472656 C 344.242188 371.472656 344.21875 371.480469 344.203125 371.488281 C 343.9375 371.574219 343.695312 371.628906 343.5 371.664062 L 343.113281 371.757812 C 343.035156 371.773438 342.941406 371.796875 342.855469 371.8125 L 342.699219 371.84375 C 342.457031 371.898438 342.257812 371.9375 342.085938 371.953125 C 341.960938 371.976562 341.835938 371.992188 341.71875 372.007812 C 341.5625 372.03125 341.398438 372.054688 341.234375 372.0625 C 341.21875 372.0625 341.207031 372.0625 341.191406 372.070312 L 341.144531 372.070312 C 340.933594 372.101562 340.730469 372.125 340.519531 372.132812 C 340.339844 372.15625 340.160156 372.164062 339.984375 372.164062 L 210.800781 372.164062 C 201.136719 372.164062 193.285156 364.300781 193.285156 354.640625 C 193.285156 344.980469 201.136719 337.117188 210.800781 337.117188 L 321.835938 337.117188 L 321.835938 222.351562 L 315.820312 222.351562 C 311.359375 222.351562 307.476562 219.828125 305.675781 215.765625 C 303.878906 211.703125 304.617188 207.132812 307.613281 203.839844 L 331.148438 177.808594 C 333.25 175.480469 336.246094 174.140625 339.359375 174.140625 C 340.917969 174.140625 342.449219 174.476562 343.851562 175.097656 C 345.253906 175.730469 346.523438 176.648438 347.582031 177.816406 L 371.121094 203.847656 C 374.101562 207.148438 374.828125 211.71875 373.019531 215.78125 Z M 373.019531 215.78125 "/></g><path style=" stroke:none;fill-rule:nonzero;fill:#737373;fill-opacity:1;" d="M 185.273438 50.945312 C 185.273438 60.613281 177.410156 68.484375 167.75 68.484375 L 56.710938 68.484375 L 56.710938 199.605469 L 62.738281 199.605469 C 67.199219 199.605469 71.082031 202.128906 72.882812 206.199219 C 74.679688 210.253906 73.933594 214.824219 70.941406 218.117188 L 47.410156 244.148438 C 45.292969 246.476562 42.304688 247.796875 39.191406 247.796875 C 36.074219 247.796875 33.09375 246.476562 30.992188 244.164062 L 7.4375 218.109375 C 4.453125 214.808594 3.722656 210.238281 5.53125 206.175781 C 7.335938 202.121094 11.210938 199.605469 15.648438 199.605469 L 21.675781 199.605469 L 21.675781 50.945312 C 21.675781 50.40625 21.699219 49.847656 21.753906 49.308594 C 21.761719 49.230469 21.761719 49.160156 21.769531 49.082031 C 21.785156 48.882812 21.808594 48.679688 21.84375 48.476562 C 21.867188 48.242188 21.90625 48.015625 21.96875 47.792969 L 21.96875 47.769531 C 22.0625 47.238281 22.1875 46.71875 22.328125 46.226562 C 22.359375 46.078125 22.421875 45.867188 22.515625 45.605469 C 22.523438 45.582031 22.53125 45.550781 22.539062 45.527344 C 22.578125 45.402344 22.617188 45.285156 22.648438 45.191406 C 22.703125 45.027344 22.757812 44.871094 22.820312 44.714844 C 22.875 44.578125 22.925781 44.4375 22.988281 44.296875 C 23.050781 44.132812 23.121094 43.976562 23.199219 43.828125 C 23.277344 43.640625 23.355469 43.472656 23.441406 43.300781 L 23.707031 42.769531 C 23.816406 42.542969 23.933594 42.351562 24.03125 42.195312 C 24.101562 42.070312 24.179688 41.9375 24.28125 41.78125 C 24.40625 41.570312 24.570312 41.316406 24.765625 41.042969 L 25.082031 40.589844 C 25.136719 40.519531 25.191406 40.441406 25.246094 40.371094 C 25.527344 40.015625 25.871094 39.585938 26.265625 39.152344 C 26.320312 39.097656 26.367188 39.042969 26.421875 38.988281 L 26.453125 38.957031 C 26.609375 38.777344 26.742188 38.652344 26.820312 38.566406 L 27.023438 38.371094 C 27.117188 38.277344 27.21875 38.183594 27.316406 38.101562 L 27.386719 38.03125 C 27.488281 37.9375 27.597656 37.84375 27.699219 37.75 C 28.066406 37.414062 28.421875 37.148438 28.679688 36.957031 L 28.851562 36.824219 C 28.96875 36.738281 29.085938 36.652344 29.210938 36.574219 C 29.289062 36.519531 29.367188 36.457031 29.441406 36.410156 C 29.503906 36.363281 29.644531 36.269531 29.847656 36.144531 C 29.941406 36.082031 30.042969 36.027344 30.136719 35.964844 C 30.339844 35.835938 30.539062 35.71875 30.75 35.609375 L 31.382812 35.289062 C 31.578125 35.1875 31.777344 35.085938 31.980469 34.992188 C 32.105469 34.9375 32.253906 34.867188 32.433594 34.800781 C 32.519531 34.761719 32.613281 34.722656 32.71875 34.683594 C 32.867188 34.613281 33.039062 34.550781 33.226562 34.488281 C 33.414062 34.402344 33.609375 34.339844 33.800781 34.277344 C 33.925781 34.238281 34.050781 34.199219 34.160156 34.167969 C 34.300781 34.121094 34.441406 34.082031 34.582031 34.042969 C 34.730469 34.011719 34.875 33.972656 35.046875 33.941406 L 35.4375 33.847656 C 35.523438 33.824219 35.609375 33.808594 35.695312 33.792969 L 35.84375 33.765625 C 36.097656 33.703125 36.347656 33.65625 36.597656 33.625 C 36.722656 33.601562 36.878906 33.578125 37.046875 33.5625 L 37.085938 33.5625 C 37.273438 33.53125 37.46875 33.507812 37.65625 33.5 C 37.757812 33.484375 37.859375 33.484375 37.953125 33.476562 C 38.152344 33.453125 38.355469 33.445312 38.574219 33.445312 L 38.667969 33.445312 C 38.839844 33.429688 39.011719 33.421875 39.191406 33.421875 L 167.75 33.421875 C 177.410156 33.421875 185.273438 41.285156 185.273438 50.945312 Z M 185.273438 50.945312 "/></g></svg>